<mxfile host="app.diagrams.net" modified="2024-02-08T10:57:12.876Z" agent="Mozilla/5.0 (X11; Linux x86_64; Chromium GOST) AppleWebKit/537.36 (KHTML, like Gecko) Chrome/120.0.0.0 Safari/537.36" etag="NWRMzKeqLdf22zlR4FbR" version="23.1.2" type="github">
  <diagram name="Страница — 1" id="iiY84fL7lKHI_6B-AdGC">
    <mxGraphModel dx="1672" dy="771" grid="1" gridSize="10" guides="1" tooltips="1" connect="1" arrows="1" fold="1" page="1" pageScale="1" pageWidth="1169" pageHeight="827" math="0" shadow="0">
      <root>
        <mxCell id="0" />
        <mxCell id="1" parent="0" />
        <mxCell id="1WrQ_Dqai8fueU3lKUO0-1" value="Пользователь" style="swimlane;childLayout=stackLayout;horizontal=1;startSize=50;horizontalStack=0;rounded=1;fontSize=14;fontStyle=0;strokeWidth=2;resizeParent=0;resizeLast=1;shadow=0;dashed=0;align=center;arcSize=4;whiteSpace=wrap;html=1;" vertex="1" parent="1">
          <mxGeometry x="260" y="80" width="160" height="120" as="geometry" />
        </mxCell>
        <mxCell id="1WrQ_Dqai8fueU3lKUO0-2" value="&lt;u&gt;ID пользователя&lt;/u&gt;&lt;br&gt;ID тура" style="align=left;strokeColor=none;fillColor=none;spacingLeft=4;fontSize=12;verticalAlign=top;resizable=0;rotatable=0;part=1;html=1;" vertex="1" parent="1WrQ_Dqai8fueU3lKUO0-1">
          <mxGeometry y="50" width="160" height="70" as="geometry" />
        </mxCell>
        <mxCell id="1WrQ_Dqai8fueU3lKUO0-3" value="Туры" style="swimlane;childLayout=stackLayout;horizontal=1;startSize=50;horizontalStack=0;rounded=1;fontSize=14;fontStyle=0;strokeWidth=2;resizeParent=0;resizeLast=1;shadow=0;dashed=0;align=center;arcSize=4;whiteSpace=wrap;html=1;" vertex="1" parent="1">
          <mxGeometry x="260" y="240" width="160" height="200" as="geometry" />
        </mxCell>
        <mxCell id="1WrQ_Dqai8fueU3lKUO0-4" value="&lt;u&gt;ID тура&lt;/u&gt;&lt;br&gt;ID заявки&lt;br&gt;ID пользователя&lt;br&gt;ID отеля&lt;br&gt;Название&lt;br&gt;Страна&lt;br&gt;Рейс&lt;br&gt;Тип питания&lt;br&gt;Услуги&lt;br&gt;Цена за тур" style="align=left;strokeColor=none;fillColor=none;spacingLeft=4;fontSize=12;verticalAlign=top;resizable=0;rotatable=0;part=1;html=1;" vertex="1" parent="1WrQ_Dqai8fueU3lKUO0-3">
          <mxGeometry y="50" width="160" height="150" as="geometry" />
        </mxCell>
        <mxCell id="1WrQ_Dqai8fueU3lKUO0-5" value="" style="edgeStyle=orthogonalEdgeStyle;fontSize=12;html=1;endArrow=ERmany;rounded=0;exitX=0.5;exitY=1;exitDx=0;exitDy=0;entryX=0.5;entryY=0;entryDx=0;entryDy=0;" edge="1" parent="1" source="1WrQ_Dqai8fueU3lKUO0-2" target="1WrQ_Dqai8fueU3lKUO0-3">
          <mxGeometry width="100" height="100" relative="1" as="geometry">
            <mxPoint x="540" y="260" as="sourcePoint" />
            <mxPoint x="640" y="160" as="targetPoint" />
          </mxGeometry>
        </mxCell>
        <mxCell id="1WrQ_Dqai8fueU3lKUO0-6" value="Отели" style="swimlane;childLayout=stackLayout;horizontal=1;startSize=50;horizontalStack=0;rounded=1;fontSize=14;fontStyle=0;strokeWidth=2;resizeParent=0;resizeLast=1;shadow=0;dashed=0;align=center;arcSize=4;whiteSpace=wrap;html=1;" vertex="1" parent="1">
          <mxGeometry x="480" y="240" width="160" height="120" as="geometry" />
        </mxCell>
        <mxCell id="1WrQ_Dqai8fueU3lKUO0-7" value="&lt;u&gt;ID отеля&lt;/u&gt;&lt;br&gt;Название&lt;br&gt;Страна&lt;br&gt;Рейтинг" style="align=left;strokeColor=none;fillColor=none;spacingLeft=4;fontSize=12;verticalAlign=top;resizable=0;rotatable=0;part=1;html=1;" vertex="1" parent="1WrQ_Dqai8fueU3lKUO0-6">
          <mxGeometry y="50" width="160" height="70" as="geometry" />
        </mxCell>
        <mxCell id="1WrQ_Dqai8fueU3lKUO0-8" value="" style="edgeStyle=orthogonalEdgeStyle;fontSize=12;html=1;endArrow=ERmany;rounded=0;entryX=1;entryY=0.5;entryDx=0;entryDy=0;exitX=0;exitY=0.25;exitDx=0;exitDy=0;" edge="1" parent="1" source="1WrQ_Dqai8fueU3lKUO0-7" target="1WrQ_Dqai8fueU3lKUO0-4">
          <mxGeometry width="100" height="100" relative="1" as="geometry">
            <mxPoint x="430" y="490" as="sourcePoint" />
            <mxPoint x="530" y="390" as="targetPoint" />
          </mxGeometry>
        </mxCell>
        <mxCell id="1WrQ_Dqai8fueU3lKUO0-9" value="Заявка" style="swimlane;childLayout=stackLayout;horizontal=1;startSize=50;horizontalStack=0;rounded=1;fontSize=14;fontStyle=0;strokeWidth=2;resizeParent=0;resizeLast=1;shadow=0;dashed=0;align=center;arcSize=4;whiteSpace=wrap;html=1;" vertex="1" parent="1">
          <mxGeometry x="260" y="490" width="160" height="130" as="geometry" />
        </mxCell>
        <mxCell id="1WrQ_Dqai8fueU3lKUO0-10" value="ID заявки&lt;br&gt;ID тура&lt;br&gt;ID пользователя&lt;br&gt;Цена за тур&lt;br&gt;Ваучер" style="align=left;strokeColor=none;fillColor=none;spacingLeft=4;fontSize=12;verticalAlign=top;resizable=0;rotatable=0;part=1;html=1;" vertex="1" parent="1WrQ_Dqai8fueU3lKUO0-9">
          <mxGeometry y="50" width="160" height="80" as="geometry" />
        </mxCell>
        <mxCell id="1WrQ_Dqai8fueU3lKUO0-12" value="" style="edgeStyle=orthogonalEdgeStyle;fontSize=12;html=1;endArrow=ERmany;rounded=0;exitX=0.5;exitY=1;exitDx=0;exitDy=0;entryX=0.5;entryY=0;entryDx=0;entryDy=0;" edge="1" parent="1" source="1WrQ_Dqai8fueU3lKUO0-4" target="1WrQ_Dqai8fueU3lKUO0-9">
          <mxGeometry width="100" height="100" relative="1" as="geometry">
            <mxPoint x="490" y="550" as="sourcePoint" />
            <mxPoint x="590" y="450" as="targetPoint" />
          </mxGeometry>
        </mxCell>
      </root>
    </mxGraphModel>
  </diagram>
</mxfile>
